<svg viewBox="-83 0 512 512" xmlns="http://www.w3.org/2000/svg"><path d="M10 100V72c0-6 5-11 11-11h209c6 0 10 5 10 11v420c0 5-4 10-10 10H21c-6 0-11-5-11-10V181" fill="#79b2ff"/><path d="M170 10H80c-5 0-10 5-10 10v41h111V20c0-5-5-10-11-10zm0 0" fill="#d7d6d8"/><g fill="#f9f9f9"><path d="M196 147L54 224v65l142-77zm0 0"/><path d="M196 103h-39L54 159v65l142-77zm0 0"/><path d="M54 103v56l103-56zm0 0"/></g><path d="M174 419l-78 43h52M196 378v-36L54 419v43h42l76-42" fill="#ff6977"/><path d="M196 277L54 354v65l142-77zm0 0" fill="#f9f9f9"/><path d="M196 212L54 289v65l142-77zm0 0" fill="#f9f9f9"/><path d="M220 337l-73 130c-9 16 2 35 20 35h147c18 0 29-19 20-35l-73-130c-9-16-32-16-41 0zm0 0" fill="#ff6977"/><path d="M10 151c6 0 10-5 10-10 0-6-4-11-10-11-5 0-10 5-10 11 0 5 5 10 10 10zm0 0"/><path d="M313 512c12 0 23-6 29-17 6-10 7-23 1-33l-74-130c-4-8-11-13-19-16V72c0-12-9-21-20-21h-39V20c0-11-10-20-21-20H80C69 0 60 9 60 20v31H20C9 51 0 60 0 72v28c0 13 20 13 20 0V72h210v244c-8 3-15 8-19 16l-5 9V103c0-6-5-10-10-10H54c-5 0-10 4-10 10v359c0 5 5 10 10 10h80c-1 6-1 13 2 20H20V181c0-13-20-13-20 0v311c0 11 9 20 20 20zM80 51V20h90v31zM64 337v-42l122-66v42zm122-173v42L64 272v-42zM64 402v-42l122-66v42zm0-195v-42l95-52h27v28zm53-94l-27 15-26 14v-29zM93 452H64v-27l122-66v18l-20 35zm51 0h-8l11-7zm181 33c-3 4-7 7-12 7H167c-10 0-17-11-12-20l74-130c5-9 18-9 23 0l73 130c2 4 2 9 0 13-3 4 2-4 0 0zm0 0"/><path d="M240 372c-5 0-10 5-10 10v46c0 13 20 13 20 0v-46c0-5-4-10-10-10zm0 0M240 453c-5 0-10 5-10 10 0 6 5 11 10 11 6 0 10-5 10-11 0-5-4-10-10-10zm0 0"/></svg>