<svg height="640" viewBox="0 0 480 480" width="640" xmlns="http://www.w3.org/2000/svg"><g fill="#80d6fb"><path d="M39 60l9-4-9-4-11-11-4-9-4 9L9 52l-9 4 9 4 11 11 4 9 4-9 11-11zm0 0M250 19l6-3-6-3c-3-2-6-4-7-7l-3-6-3 6c-2 3-4 6-7 7l-6 3 6 3c3 2 6 4 7 7l3 6 3-6c1-3 4-6 7-7zm0 0M405 137l3-1-3-1-4-4-1-3-1 3-4 4-3 1 3 1 4 4 1 3 1-3 4-4zm0 0"/></g><path d="M48 224h128v128H48zm0 0" fill="#ffd3b3"/><path d="M128 264l-16-8-16 8v-40h32zm0 0" fill="#6e83b7"/><path d="M48 128h128v96H48zm0 0" fill="#ffd3b3"/><path d="M128 168l-16-8-16 8v-40h32zm0 0M32 352h160v16H32zm0 0" fill="#6e83b7"/><path d="M208 80h-16c-9 0-16 7-16 16v272h16V96h16zm0 0" fill="#6e83b7"/><path d="M200 80h24a8 8 0 010 16h-24zm0 0" fill="#ffe352"/><path d="M40 384l8 16h16v-32H40zm0 0" fill="#80d6fb"/><path d="M176 352v-21c-9 4-17 12-21 21zm0 0" fill="#fcb98b"/><path d="M176 331v21h-21c-2 5-3 10-3 16h40v-40c-6 0-11 1-16 3zm0 0" fill="#466089"/><path d="M224 368a32 32 0 11-64 0 32 32 0 0164 0zm0 0" fill="#6e83b7"/><path d="M208 368a16 16 0 11-32 0 16 16 0 0132 0zm0 0" fill="#d3d3d3"/><path d="M48 216h128v8H48zm0 0" fill="#fcb98b"/><path d="M224 272h128v128H224zm0 0" fill="#ffd3b3"/><path d="M304 312l-16-8-16 8v-40h32zm0 0" fill="#6e83b7"/><path d="M224 144h128v128H224zm0 0" fill="#ffd3b3"/><path d="M304 184l-16-8-16 8v-40h32zm0 0" fill="#6e83b7"/><path d="M352 272h128v128H352zm0 0" fill="#ffd3b3"/><path d="M466 400H334l2-10 5-20a24 24 0 0123-18h4c4 0 8-4 8-8v-72h48v72c0 4 4 8 8 8h4c11 0 20 7 23 18l5 20zm0 0" fill="#fcb98b"/><path d="M432 312l-16-8-16 8v-40h32zm0 0" fill="#6e83b7"/><path d="M416 304l8 4v-36h-24v40zm0 0" fill="#466089"/><path d="M224 264h128v8H224zm0 0" fill="#fcb98b"/><path d="M480 480l-24-88H344l-24 88zm0 0" fill="#ffe352"/><path d="M392 392h16v32h-16zm0 0M424 392h16v24h-16zm0 0M360 392h16v24h-16zm0 0" fill="#ffb236"/><path d="M456 392l-5-20c-2-7-8-12-15-12h-4c-9 0-16-7-16-16v-87c0-8-5-16-13-17-10-1-19 6-19 16v88c0 9-7 16-16 16h-4c-7 0-13 5-15 12l-5 20zm-56-144a8 8 0 110 16 8 8 0 010-16zm0 0" fill="#6e83b7"/></svg>