<svg height="512" viewBox="0 0 256 256" width="512" xmlns="http://www.w3.org/2000/svg"><path d="M136 72l-5 6-9-9-9 10 5 4a5 5 0 010 7l-31 31-14 14a5 5 0 01-7 1l-5-5-9 9 8 8-6 6a13 13 0 01-18 0l-26-26a13 13 0 010-19l6-5 8 8 9-9-5-5a5 5 0 010-7l46-45a5 5 0 017 0l4 5 10-9-9-9 6-5a13 13 0 0118 0l26 26a13 13 0 010 18z" fill="#4c4945"/><path d="M141 139l-1 25-11 4-42-47 17-16zM244 227a19 19 0 01-27-1l-58-64 11-3 1-25 72 65a19 19 0 011 28z" fill="#f0c020"/><path d="M128 145l-26-23a3 3 0 014-4l26 24a3 3 0 01-4 3z" fill="#f9e5af"/><path d="M66 122a3 3 0 010-3l3-4a3 3 0 014 4l-4 3a3 3 0 01-3 0zm10-10a3 3 0 010-4l22-22-20-20a3 3 0 013-4l22 22a3 3 0 010 4l-23 24a3 3 0 01-4 0z" fill="#7c7b7a"/><path d="M235 221a3 3 0 010-4 5 5 0 00-1-8l-3-3a3 3 0 114-4l3 3a10 10 0 010 16 3 3 0 01-3 0zm-11-22l-45-40a3 3 0 014-4l44 41a3 3 0 11-3 3z" fill="#f9e5af"/><path d="M131 48a2 2 0 000-3 3 3 0 00-4 0 3 3 0 004 3zM43 80a3 3 0 000-3 3 3 0 00-4 0 3 3 0 104 3z"/><path d="M127 169a3 3 0 003 1l11-3a3 3 0 002-3l1-25a3 3 0 00-1-2l-36-33 13-12a8 8 0 000-10l-3-3 5-6 7 6a2 2 0 003 0l6-5a16 16 0 000-22 3 3 0 00-4 0 3 3 0 000 3 11 11 0 010 15l-3 4-41-41 4-3a11 11 0 0115 0l11 11a3 3 0 004 0 2 2 0 000-3l-12-12a16 16 0 00-22 0l-5 5a2 2 0 000 4l6 7-6 5-3-3a8 8 0 00-10 0L46 70a2 2 0 000 3 3 3 0 004 0l25-25a2 2 0 014 0l37 37a3 3 0 010 4l-45 45a3 3 0 01-4 0L30 96a3 3 0 010-3l6-6a3 3 0 000-3 3 3 0 00-4 0l-5 5a8 8 0 000 11l3 3-6 6-7-7a3 3 0 00-3 0l-6 6a16 16 0 000 22l26 26a16 16 0 0022 0l6-6a3 3 0 000-3l-7-7 6-6 3 3a8 8 0 0011 0l12-12zM95 45l24 24-6 6-24-24zM53 152a11 11 0 01-15 0l-26-26a11 11 0 010-15l4-3 40 40zm-1-15l-25-25 6-5 24 24zm52-29l35 32-1 22-8 3-40-44 14-13zM182 188a3 3 0 103 0 3 3 0 00-3 0z"/><path d="M245 197l-72-65a3 3 0 00-4 1l-1 24-10 3a3 3 0 00-1 4l18 20a3 3 0 003 0 3 3 0 001-4l-15-16 7-3a2 2 0 001-2l1-20 69 62a16 16 0 11-23 23l-27-29a3 3 0 00-3 0 3 3 0 00-1 3l27 30a21 21 0 1030-31zM157 123a3 3 0 004 0l26-28a3 3 0 10-4-4l-26 29a3 3 0 000 3zM160 87a3 3 0 00-3 2l-6 17a3 3 0 104 2l6-18a3 3 0 00-1-3zM180 118a3 3 0 003 1l16-4a3 3 0 10-2-5l-15 5a3 3 0 00-2 3zM142 187a3 3 0 00-3 0l-26 29a3 3 0 004 3l25-28a3 3 0 000-4zM147 201a3 3 0 00-3 1l-6 18a3 3 0 005 2l6-18a3 3 0 00-2-3zM119 193a3 3 0 00-3-2l-15 4a3 3 0 101 5l15-4a3 3 0 002-3z"/></svg>