<svg xmlns="http://www.w3.org/2000/svg" viewBox="0 0 512 512"><circle cx="256" cy="256" fill="#00b661" r="256"/><path d="M471 116A256 256 0 1113 338l4-1c22-6 45 5 62 20 13 11 25 25 42 31 24 8 52-7 67-28 16-21 23-46 31-71 9-24 19-48 36-67s41-33 67-33c13 0 28 4 40-4 9-6 13-19 13-30l-3-33c0-17 7-35 23-39 11-3 23 2 32 9 9 6 17 14 27 20 5 2 11 4 17 4z" fill="#00a151"/><path d="M486 301v68a250 250 0 01-20 33H327c-2 0-3-1-3-3v-98c0-1 1-2 3-2h156c2 0 3 1 3 2z" fill="#eea47d"/><path d="M486 301v68l-12 22H342c-4 0-7-3-7-7v-85h148c2 0 3 1 3 2z" fill="#f5b890"/><path d="M486 301v68c-6 11-12 22-20 33h-21V299h38c2 0 3 1 3 2z" fill="#d48d77"/><path d="M474 391l-8 11h-21v-11z" fill="#c17e62"/><g fill="#3e4e60"><path d="M408 341v14h8v-14h5l-9-17-10 17zM426 326v29h8v-29h6l-10-17-9 17z"/></g><path d="M373 299h19v42h-19z" fill="#bf5e39"/><g><path d="M460 214v82c0 2-1 3-3 3H327c-2 0-3-1-3-3v-82c0-1 1-2 3-2h130c2 0 3 1 3 2z" fill="#eea47d"/><path d="M460 214v75H339c-3 0-6-2-6-5v-72h124c2 0 3 1 3 2z" fill="#f5b890"/><path d="M457 212h-31v87h31c2 0 3-1 3-3v-82c0-1-1-2-3-2z" fill="#d48d77"/><path d="M457 299h-31v-10h34v7c0 2-1 3-3 3z" fill="#c17e62"/><g fill="#3e4e60"><path d="M394 247v12h7v-12h5l-8-13-8 13zM410 235v24h6v-24h5l-8-14-8 14z"/></g><path d="M365 212h16v35h-16z" fill="#bf5e39"/></g><g><path d="M353 135v174l-1 1H252l-2-1V135l2-2h100l1 2z" fill="#eea47d"/><path d="M353 135v168h-92c-2 0-4-2-4-4V133h95l1 2z" fill="#f5b890"/><path d="M352 133h-24v177h24l1-1V135l-1-2z" fill="#d48d77"/><path d="M352 310h-24v-7h25v6l-1 1z" fill="#c17e62"/><g fill="#3e4e60"><path d="M304 160v9h5v-9h3l-6-11-6 11zM316 150v19h4v-19h4l-6-10-6 10z"/></g><path d="M281 133h13v27h-13z" fill="#bf5e39"/></g><g><path d="M354 313v98c0 1-1 3-3 3H195c-2 0-3-2-3-3v-98c0-1 1-3 3-3h156c2 0 3 2 3 3z" fill="#eea47d"/><path d="M354 313v90H210c-4 0-7-3-7-7v-86h148c2 0 3 2 3 3z" fill="#f5b890"/><path d="M351 310h-38v104h38c2 0 3-2 3-3v-98c0-1-1-3-3-3z" fill="#d48d77"/><path d="M351 414h-38v-11h41v8c0 1-1 3-3 3z" fill="#c17e62"/><g fill="#3e4e60"><path d="M276 352v15h7v-15h6l-9-16-10 16zM294 337v30h8v-30h6l-10-16-9 16z"/></g><path d="M241 310h19v42h-19z" fill="#bf5e39"/></g><g><path d="M185 99l47 176c1 2-1 4-2 4L97 315l-4-3-47-175c-1-2 1-4 3-5l132-35c2-1 4 0 4 2z" fill="#9f482c"/><path d="M185 99l47 176c1 2-1 4-2 4l-125 34c-2 0-4-1-4-3L54 135c-1-2 0-4 2-5l125-33c2-1 4 0 4 2z" fill="#a75c37"/><path d="M220 273l-110 29c-1 1-2 0-3-2L64 140c0-2 1-3 2-3l109-30 4 2 43 161-2 3z" fill="#fff"/><path d="M153 103l3 10c1 4-2 9-6 10l-53 14c-4 1-9-1-10-6l-2-9c-2-5 1-9 5-11l53-14c5-1 9 2 10 6z" fill="#6db7e2"/><path d="M153 103l3 10c1 4-2 9-6 10l-45 12c-5 1-9-2-10-6l-3-9c-1-5 2-9 6-11l45-12c5-1 9 2 10 6z" fill="#79c7fd"/><path d="M135 99l-37 10 2-6 2-10a13 13 0 0122-6l7 8z" fill="#6db7e2"/><path d="M135 99l-29 8 4-16a13 13 0 015-8c4 0 6 2 9 4z" fill="#79c7fd"/><path d="M135 99l-37 10 2-6 31-8z" fill="#5daad1"/><path d="M163 233l27-7 8 28-28 7z" fill="#cde6f6"/><path d="M188 250c0 2-3 4-5 2l-14-6a3 3 0 013-6l6 3c3 1 5 0 6-3l6-20a3 3 0 116 1z" fill="#00a151"/><g><path d="M150 188l28-7 7 27-27 8z" fill="#cde6f6"/><path d="M176 205c-1 2-3 3-5 2l-14-6a3 3 0 012-7l7 4c2 1 5-1 6-3l6-21a3 3 0 116 2z" fill="#00a151"/></g><g><path d="M137 143l28-7 7 27-27 8z" fill="#cde6f6"/><path d="M163 160c-1 2-3 3-5 2l-15-7a3 3 0 013-6l7 4c2 1 5-1 6-3l6-21a3 3 0 116 2z" fill="#00a151"/></g><g fill="#3e4e60"><path d="M82 168l50-13 2 8-50 14zM94 213l50-13 2 8-50 14zM106 259l50-14 2 9-50 13z"/></g></g></svg>