<svg xmlns="http://www.w3.org/2000/svg" viewBox="0 0 512 512"><circle cx="256" cy="256" r="256" fill="#5c5e70"/><path d="M470 206a7 7 0 01-7-7v-11a7 7 0 0114 0v11a7 7 0 01-7 7zm0 58a7 7 0 01-7-7v-12a7 7 0 0114 0v12a7 7 0 01-7 7zm34-35h-11a7 7 0 010-14h11a7 7 0 010 14zm-57 0h-12a7 7 0 010-14h12a7 7 0 110 14zM392 23a7 7 0 01-7-7V7a7 7 0 0114 0v9a7 7 0 01-7 7zm0 44a7 7 0 01-7-7v-9a7 7 0 0114 0v9a7 7 0 01-7 7zm26-26h-8a7 7 0 010-15h8a7 7 0 010 15zm-44 0h-9a7 7 0 010-15h9a7 7 0 010 15z" fill="#34abe0"/><path d="M306 125a7 7 0 01-6-11c10-16 19-33 25-48a7 7 0 0113 6c-7 16-15 32-26 49a7 7 0 01-6 4z" fill="#ff5a5a"/><path d="M216 235a7 7 0 01-5-12c0-1 33-31 65-74a7 7 0 1111 8c-33 44-65 75-66 76a7 7 0 01-5 2z" fill="#34abe0"/><path d="M278 245a7 7 0 01-5-12c33-30 98-83 164-103a7 7 0 014 14c-63 19-126 70-158 99a7 7 0 01-5 2z" fill="#f9f9f9"/><path d="M290 309a7 7 0 01-4-13c2-2 58-45 133-31a7 7 0 015 9c0 3-4 6-8 5-69-13-121 28-122 28a7 7 0 01-4 2zm-95-132a7 7 0 01-6-10c11-22 23-58 15-100a7 7 0 015-9 7 7 0 018 6c9 46-4 85-16 110a7 7 0 01-6 3z" fill="#ff5a5a"/><path d="M286 371l-115 57-67 34c-35-26-62-59-80-98l11-22 53-107 21-42 177 178z" fill="#f9f9f9"/><path d="M286 371l-182 91a257 257 0 01-26-22l167-124 41 55z" fill="#e8e8e8"/><path d="M77 439c-22-22-40-47-53-75l11-22 42 97zm209-68l-115 57-19-43-64-150 21-42 128 128z" fill="#ff5a5a"/><path fill="#ea4444" d="M286 371l-115 57-19-43 85-64 8-5z"/><path d="M270 373L106 209a20 20 0 1129-28l164 163a20 20 0 01-29 29z" fill="#f9f9f9"/><path d="M299 344l-44-44a20 20 0 11-29 29l44 44a20 20 0 1029-29z" fill="#e8e8e8"/><circle cx="163.4" cy="128" r="7" fill="#f9f9f9"/><circle cx="257.3" cy="101.2" r="7" fill="#ff5a5a"/><circle cx="372.3" cy="122.3" r="7" fill="#34abe0"/><g fill="#f9f9f9"><circle cx="372.3" cy="323.5" r="7"/><path d="M255 10l9 8a3 3 0 002 0l12-2c2-1 4 2 3 4l-5 11a3 3 0 001 2l6 10c1 2-1 5-3 5l-12-1a3 3 0 00-2 1l-8 9c-1 2-4 1-5-2l-3-11a3 3 0 00-1-2l-11-5c-2-1-3-4-1-5l11-6a3 3 0 001-2l1-12c0-2 3-4 5-2z"/></g><path d="M486 70l6 13a4 4 0 003 2l14 2c3 0 4 4 2 6l-11 10a4 4 0 00-1 3l3 14c0 3-3 5-6 4l-12-7a4 4 0 00-4 0l-12 7c-3 1-6-1-6-4l3-14a4 4 0 00-1-4l-10-10c-2-2-1-6 2-6l14-2a4 4 0 003-2l6-12c2-3 6-3 7 0z" fill="#ff5a5a"/></svg>